# xmcd CD database file
# Copyright (C) 1996 Ti Kan
#
# Track frame offsets:
# 	150
# 	14167
# 	29417
# 	46087
# 	70240
# 	96907
# 	118305
# 	140757
# 	164455
# 	185817
# 	206525
# 	228955
#
# Disc length: 3307 seconds
#
# Revision: 1
# Processed by: cddbd v1.4b41PL1 Copyright (c) Steve Scherf et al.
# Submitted via: DiscPlay 3.4.1
#
DISCID=b30ce90c
DTITLE=Mr. Blue - Down The Road
DYEAR=1900
DGENRE=
TTITLE0=Down The Road- Part 1
TTITLE1=Next Time You See Me
TTITLE2=Yer Fired
TTITLE3=Real Deal
TTITLE4=I've Got Somethin' To Say
TTITLE5=Texas Drag
TTITLE6=She Cries
TTITLE7=The Blues, That's Right
TTITLE8=Burnin' Love
TTITLE9=Cold Woman
TTITLE10=She Loves My Automobile
TTITLE11=Down The Road- Part 2
EXTD=
EXTT0=
EXTT1=
EXTT2=
EXTT3=
EXTT4=
EXTT5=
EXTT6=
EXTT7=
EXTT8=
EXTT9=
EXTT10=
EXTT11=
PLAYORDER=
